<mxfile host="app.diagrams.net" agent="Mozilla/5.0 (Windows NT 10.0; Win64; x64) AppleWebKit/537.36 (KHTML, like Gecko) Chrome/132.0.0.0 Safari/537.36" version="26.0.11">
  <diagram name="Page-1" id="74e2e168-ea6b-b213-b513-2b3c1d86103e">
    <mxGraphModel dx="1793" dy="933" grid="1" gridSize="10" guides="1" tooltips="1" connect="1" arrows="1" fold="1" page="1" pageScale="1" pageWidth="1100" pageHeight="850" background="none" math="0" shadow="0">
      <root>
        <mxCell id="0" />
        <mxCell id="1" parent="0" />
        <mxCell id="AKiQm5pq_ZOdEpNl_geh-2" value="&lt;span style=&quot;background-color: light-dark(#ffffff, var(--ge-dark-color, #121212));&quot;&gt;&lt;font style=&quot;color: rgb(0, 76, 153);&quot;&gt;START&lt;/font&gt;&lt;/span&gt;" style="rounded=0;whiteSpace=wrap;html=1;" vertex="1" parent="1">
          <mxGeometry x="23" y="185" width="100" height="30" as="geometry" />
        </mxCell>
        <mxCell id="AKiQm5pq_ZOdEpNl_geh-6" value="" style="endArrow=classic;html=1;rounded=0;" edge="1" parent="1">
          <mxGeometry width="50" height="50" relative="1" as="geometry">
            <mxPoint x="770" y="24.5" as="sourcePoint" />
            <mxPoint x="870" y="24.5" as="targetPoint" />
          </mxGeometry>
        </mxCell>
        <mxCell id="AKiQm5pq_ZOdEpNl_geh-8" value="USER FLOW" style="text;strokeColor=none;align=center;fillColor=none;html=1;verticalAlign=middle;whiteSpace=wrap;rounded=0;" vertex="1" parent="1">
          <mxGeometry x="870" y="10" width="100" height="30" as="geometry" />
        </mxCell>
        <mxCell id="AKiQm5pq_ZOdEpNl_geh-9" value="" style="endArrow=classic;html=1;rounded=0;" edge="1" parent="1">
          <mxGeometry width="50" height="50" relative="1" as="geometry">
            <mxPoint x="72.5" y="221" as="sourcePoint" />
            <mxPoint x="73" y="246" as="targetPoint" />
          </mxGeometry>
        </mxCell>
        <mxCell id="AKiQm5pq_ZOdEpNl_geh-11" value="로그인" style="rhombus;whiteSpace=wrap;html=1;fillColor=#f8cecc;strokeColor=#b85450;" vertex="1" parent="1">
          <mxGeometry x="23" y="251.19" width="100" height="50" as="geometry" />
        </mxCell>
        <mxCell id="AKiQm5pq_ZOdEpNl_geh-12" value="" style="endArrow=classic;html=1;rounded=0;" edge="1" parent="1">
          <mxGeometry width="50" height="50" relative="1" as="geometry">
            <mxPoint x="143" y="309.5" as="sourcePoint" />
            <mxPoint x="233" y="309.5" as="targetPoint" />
          </mxGeometry>
        </mxCell>
        <mxCell id="AKiQm5pq_ZOdEpNl_geh-16" value="" style="rhombus;whiteSpace=wrap;html=1;fillColor=#f8cecc;strokeColor=#b85450;" vertex="1" parent="1">
          <mxGeometry x="630" width="100" height="50" as="geometry" />
        </mxCell>
        <mxCell id="AKiQm5pq_ZOdEpNl_geh-17" value="STATUS" style="text;strokeColor=none;align=center;fillColor=none;html=1;verticalAlign=middle;whiteSpace=wrap;rounded=0;" vertex="1" parent="1">
          <mxGeometry x="650" y="10" width="60" height="30" as="geometry" />
        </mxCell>
        <mxCell id="AKiQm5pq_ZOdEpNl_geh-18" value="&lt;span&gt;&lt;font style=&quot;&quot;&gt;PAGE&lt;/font&gt;&lt;/span&gt;" style="rounded=0;whiteSpace=wrap;html=1;fillColor=#fff2cc;strokeColor=#d6b656;labelBackgroundColor=none;fontColor=default;" vertex="1" parent="1">
          <mxGeometry x="350" y="15" width="70" height="20" as="geometry" />
        </mxCell>
        <mxCell id="AKiQm5pq_ZOdEpNl_geh-19" value="이메일 로그인" style="rounded=0;whiteSpace=wrap;html=1;fillColor=#fff2cc;strokeColor=#d6b656;labelBackgroundColor=none;fontColor=default;" vertex="1" parent="1">
          <mxGeometry x="243" y="297.5" width="80" height="25" as="geometry" />
        </mxCell>
        <mxCell id="AKiQm5pq_ZOdEpNl_geh-23" value="" style="line;strokeWidth=1;direction=south;html=1;" vertex="1" parent="1">
          <mxGeometry x="138" y="220" width="10" height="90" as="geometry" />
        </mxCell>
        <mxCell id="AKiQm5pq_ZOdEpNl_geh-24" value="" style="endArrow=classic;html=1;rounded=0;" edge="1" parent="1">
          <mxGeometry width="50" height="50" relative="1" as="geometry">
            <mxPoint x="144" y="220" as="sourcePoint" />
            <mxPoint x="234" y="220" as="targetPoint" />
          </mxGeometry>
        </mxCell>
        <mxCell id="AKiQm5pq_ZOdEpNl_geh-28" value="이메일 입력" style="rounded=0;whiteSpace=wrap;html=1;labelBackgroundColor=none;" vertex="1" parent="1">
          <mxGeometry x="371" y="209" width="80" height="25" as="geometry" />
        </mxCell>
        <mxCell id="AKiQm5pq_ZOdEpNl_geh-29" value="메일 인증" style="rhombus;whiteSpace=wrap;html=1;fillColor=#f8cecc;strokeColor=#b85450;" vertex="1" parent="1">
          <mxGeometry x="496" y="202.62" width="100" height="37.75" as="geometry" />
        </mxCell>
        <mxCell id="AKiQm5pq_ZOdEpNl_geh-30" value="" style="endArrow=classic;html=1;rounded=0;" edge="1" parent="1">
          <mxGeometry width="50" height="50" relative="1" as="geometry">
            <mxPoint x="461" y="221.07999999999998" as="sourcePoint" />
            <mxPoint x="491" y="221" as="targetPoint" />
          </mxGeometry>
        </mxCell>
        <mxCell id="AKiQm5pq_ZOdEpNl_geh-36" value="No" style="text;strokeColor=none;align=center;fillColor=none;html=1;verticalAlign=middle;whiteSpace=wrap;rounded=0;" vertex="1" parent="1">
          <mxGeometry x="548" y="176.81" width="30" height="30" as="geometry" />
        </mxCell>
        <mxCell id="AKiQm5pq_ZOdEpNl_geh-37" value="" style="endArrow=classic;html=1;rounded=0;" edge="1" parent="1">
          <mxGeometry width="50" height="50" relative="1" as="geometry">
            <mxPoint x="611" y="221.07999999999998" as="sourcePoint" />
            <mxPoint x="651" y="221" as="targetPoint" />
          </mxGeometry>
        </mxCell>
        <mxCell id="AKiQm5pq_ZOdEpNl_geh-38" value="비밀번호 입력" style="rounded=0;whiteSpace=wrap;html=1;labelBackgroundColor=none;" vertex="1" parent="1">
          <mxGeometry x="661" y="209" width="80" height="25" as="geometry" />
        </mxCell>
        <mxCell id="AKiQm5pq_ZOdEpNl_geh-39" value="" style="endArrow=classic;html=1;rounded=0;" edge="1" parent="1">
          <mxGeometry width="50" height="50" relative="1" as="geometry">
            <mxPoint x="747" y="221.07999999999998" as="sourcePoint" />
            <mxPoint x="792" y="221" as="targetPoint" />
          </mxGeometry>
        </mxCell>
        <mxCell id="AKiQm5pq_ZOdEpNl_geh-41" value="조건 만족" style="rhombus;whiteSpace=wrap;html=1;fillColor=#f8cecc;strokeColor=#b85450;" vertex="1" parent="1">
          <mxGeometry x="801" y="202.62" width="100" height="37.75" as="geometry" />
        </mxCell>
        <mxCell id="AKiQm5pq_ZOdEpNl_geh-44" value="No" style="text;strokeColor=none;align=center;fillColor=none;html=1;verticalAlign=middle;whiteSpace=wrap;rounded=0;" vertex="1" parent="1">
          <mxGeometry x="836.9999999999999" y="178.63" width="60" height="30" as="geometry" />
        </mxCell>
        <mxCell id="AKiQm5pq_ZOdEpNl_geh-49" value="" style="shape=partialRectangle;whiteSpace=wrap;html=1;bottom=1;right=1;left=1;top=0;fillColor=none;routingCenterX=-0.5;direction=west;" vertex="1" parent="1">
          <mxGeometry x="398" y="138.62" width="150" height="60" as="geometry" />
        </mxCell>
        <mxCell id="AKiQm5pq_ZOdEpNl_geh-51" value="기본정보 입력" style="rounded=0;whiteSpace=wrap;html=1;labelBackgroundColor=none;" vertex="1" parent="1">
          <mxGeometry x="921" y="208.81" width="80" height="25" as="geometry" />
        </mxCell>
        <mxCell id="AKiQm5pq_ZOdEpNl_geh-52" value="본인인증" style="rounded=0;whiteSpace=wrap;html=1;labelBackgroundColor=none;" vertex="1" parent="1">
          <mxGeometry x="1051" y="208.81" width="80" height="25" as="geometry" />
        </mxCell>
        <mxCell id="AKiQm5pq_ZOdEpNl_geh-53" value="" style="endArrow=classic;html=1;rounded=0;" edge="1" parent="1">
          <mxGeometry width="50" height="50" relative="1" as="geometry">
            <mxPoint x="1005" y="221.33999999999997" as="sourcePoint" />
            <mxPoint x="1041" y="221" as="targetPoint" />
          </mxGeometry>
        </mxCell>
        <mxCell id="AKiQm5pq_ZOdEpNl_geh-54" value="약관동의" style="rhombus;whiteSpace=wrap;html=1;fillColor=#f8cecc;strokeColor=#b85450;" vertex="1" parent="1">
          <mxGeometry x="1189" y="202.63" width="100" height="37.75" as="geometry" />
        </mxCell>
        <mxCell id="AKiQm5pq_ZOdEpNl_geh-55" value="가입완료" style="rounded=0;whiteSpace=wrap;html=1;labelBackgroundColor=none;" vertex="1" parent="1">
          <mxGeometry x="1333" y="209.01" width="80" height="25" as="geometry" />
        </mxCell>
        <mxCell id="AKiQm5pq_ZOdEpNl_geh-57" value="" style="endArrow=classic;html=1;rounded=0;entryX=0;entryY=0.5;entryDx=0;entryDy=0;" edge="1" parent="1">
          <mxGeometry width="50" height="50" relative="1" as="geometry">
            <mxPoint x="1296" y="221.30999999999997" as="sourcePoint" />
            <mxPoint x="1323" y="221.66" as="targetPoint" />
          </mxGeometry>
        </mxCell>
        <mxCell id="AKiQm5pq_ZOdEpNl_geh-59" value="" style="endArrow=classic;html=1;rounded=0;entryX=0;entryY=0.5;entryDx=0;entryDy=0;" edge="1" parent="1">
          <mxGeometry width="50" height="50" relative="1" as="geometry">
            <mxPoint x="1148" y="219.99999999999997" as="sourcePoint" />
            <mxPoint x="1175" y="220.35" as="targetPoint" />
          </mxGeometry>
        </mxCell>
        <mxCell id="AKiQm5pq_ZOdEpNl_geh-60" value="" style="shape=partialRectangle;whiteSpace=wrap;html=1;bottom=1;right=1;left=1;top=0;fillColor=none;routingCenterX=-0.5;direction=west;" vertex="1" parent="1">
          <mxGeometry x="698" y="138.62" width="150" height="60" as="geometry" />
        </mxCell>
        <mxCell id="AKiQm5pq_ZOdEpNl_geh-62" value="" style="endArrow=classic;html=1;rounded=0;entryX=0;entryY=0.5;entryDx=0;entryDy=0;" edge="1" parent="1" target="AKiQm5pq_ZOdEpNl_geh-51">
          <mxGeometry width="50" height="50" relative="1" as="geometry">
            <mxPoint x="901" y="221.64999999999998" as="sourcePoint" />
            <mxPoint x="937" y="221.31" as="targetPoint" />
          </mxGeometry>
        </mxCell>
        <mxCell id="AKiQm5pq_ZOdEpNl_geh-63" value="사용자 페이지" style="text;strokeColor=none;align=center;fillColor=none;html=1;verticalAlign=middle;whiteSpace=wrap;rounded=0;" vertex="1" parent="1">
          <mxGeometry x="18" y="60" width="130" height="30" as="geometry" />
        </mxCell>
        <mxCell id="AKiQm5pq_ZOdEpNl_geh-64" value="" style="endArrow=classic;html=1;rounded=0;" edge="1" parent="1">
          <mxGeometry width="50" height="50" relative="1" as="geometry">
            <mxPoint x="330" y="310.08" as="sourcePoint" />
            <mxPoint x="360" y="310" as="targetPoint" />
          </mxGeometry>
        </mxCell>
        <mxCell id="AKiQm5pq_ZOdEpNl_geh-65" value="이메일 입력" style="rounded=0;whiteSpace=wrap;html=1;labelBackgroundColor=none;" vertex="1" parent="1">
          <mxGeometry x="370" y="297.5" width="80" height="25" as="geometry" />
        </mxCell>
        <mxCell id="AKiQm5pq_ZOdEpNl_geh-66" value="" style="endArrow=classic;html=1;rounded=0;" edge="1" parent="1">
          <mxGeometry width="50" height="50" relative="1" as="geometry">
            <mxPoint x="460" y="309.34" as="sourcePoint" />
            <mxPoint x="490" y="309.26" as="targetPoint" />
          </mxGeometry>
        </mxCell>
        <mxCell id="AKiQm5pq_ZOdEpNl_geh-67" value="비밀번호 입력" style="rounded=0;whiteSpace=wrap;html=1;labelBackgroundColor=none;" vertex="1" parent="1">
          <mxGeometry x="500" y="297.5" width="80" height="25" as="geometry" />
        </mxCell>
        <mxCell id="AKiQm5pq_ZOdEpNl_geh-69" value="조건 만족" style="rhombus;whiteSpace=wrap;html=1;fillColor=#f8cecc;strokeColor=#b85450;" vertex="1" parent="1">
          <mxGeometry x="609" y="291.12" width="100" height="37.75" as="geometry" />
        </mxCell>
        <mxCell id="AKiQm5pq_ZOdEpNl_geh-70" value="" style="endArrow=classic;html=1;rounded=0;" edge="1" parent="1">
          <mxGeometry width="50" height="50" relative="1" as="geometry">
            <mxPoint x="584" y="310.08" as="sourcePoint" />
            <mxPoint x="604" y="310" as="targetPoint" />
          </mxGeometry>
        </mxCell>
        <mxCell id="AKiQm5pq_ZOdEpNl_geh-71" value="" style="endArrow=classic;html=1;rounded=0;" edge="1" parent="1">
          <mxGeometry width="50" height="50" relative="1" as="geometry">
            <mxPoint x="717" y="309.34" as="sourcePoint" />
            <mxPoint x="737" y="309.26" as="targetPoint" />
          </mxGeometry>
        </mxCell>
        <mxCell id="AKiQm5pq_ZOdEpNl_geh-72" value="" style="shape=partialRectangle;whiteSpace=wrap;html=1;bottom=1;right=1;left=1;top=0;fillColor=none;routingCenterX=-0.5;direction=west;" vertex="1" parent="1">
          <mxGeometry x="410" y="261.19" width="250" height="23.81" as="geometry" />
        </mxCell>
        <mxCell id="AKiQm5pq_ZOdEpNl_geh-73" value="No" style="text;strokeColor=none;align=center;fillColor=none;html=1;verticalAlign=middle;whiteSpace=wrap;rounded=0;" vertex="1" parent="1">
          <mxGeometry x="648.9999999999999" y="261.19" width="60" height="30" as="geometry" />
        </mxCell>
        <mxCell id="AKiQm5pq_ZOdEpNl_geh-74" value="로그인" style="rounded=0;whiteSpace=wrap;html=1;labelBackgroundColor=none;" vertex="1" parent="1">
          <mxGeometry x="750" y="297.49" width="80" height="25" as="geometry" />
        </mxCell>
        <mxCell id="AKiQm5pq_ZOdEpNl_geh-75" value="" style="endArrow=classic;html=1;rounded=0;" edge="1" parent="1">
          <mxGeometry width="50" height="50" relative="1" as="geometry">
            <mxPoint x="73" y="310" as="sourcePoint" />
            <mxPoint x="72" y="610" as="targetPoint" />
          </mxGeometry>
        </mxCell>
        <mxCell id="AKiQm5pq_ZOdEpNl_geh-78" value="프로젝트 선택" style="rounded=0;whiteSpace=wrap;html=1;labelBackgroundColor=none;" vertex="1" parent="1">
          <mxGeometry x="322" y="450" width="80" height="25" as="geometry" />
        </mxCell>
        <mxCell id="AKiQm5pq_ZOdEpNl_geh-79" value="프로젝트 생성" style="rounded=0;whiteSpace=wrap;html=1;labelBackgroundColor=none;" vertex="1" parent="1">
          <mxGeometry x="321" y="530" width="80" height="25" as="geometry" />
        </mxCell>
        <mxCell id="AKiQm5pq_ZOdEpNl_geh-81" value="" style="endArrow=none;html=1;rounded=0;" edge="1" parent="1">
          <mxGeometry width="50" height="50" relative="1" as="geometry">
            <mxPoint x="72" y="500" as="sourcePoint" />
            <mxPoint x="110" y="500" as="targetPoint" />
          </mxGeometry>
        </mxCell>
        <mxCell id="AKiQm5pq_ZOdEpNl_geh-84" value="" style="shape=partialRectangle;whiteSpace=wrap;html=1;bottom=1;right=1;left=1;top=0;fillColor=none;routingCenterX=-0.5;direction=south;" vertex="1" parent="1">
          <mxGeometry x="289" y="460" width="27" height="80" as="geometry" />
        </mxCell>
        <mxCell id="AKiQm5pq_ZOdEpNl_geh-86" value="" style="endArrow=classic;html=1;rounded=0;" edge="1" parent="1">
          <mxGeometry width="50" height="50" relative="1" as="geometry">
            <mxPoint x="408" y="462.37" as="sourcePoint" />
            <mxPoint x="438" y="462.28999999999996" as="targetPoint" />
          </mxGeometry>
        </mxCell>
        <mxCell id="AKiQm5pq_ZOdEpNl_geh-88" value="기존 프로젝트 확인" style="rounded=0;whiteSpace=wrap;html=1;labelBackgroundColor=none;" vertex="1" parent="1">
          <mxGeometry x="448" y="450" width="120" height="25" as="geometry" />
        </mxCell>
        <mxCell id="AKiQm5pq_ZOdEpNl_geh-89" value="프로젝트 상세 정보 확인" style="rounded=0;whiteSpace=wrap;html=1;labelBackgroundColor=none;" vertex="1" parent="1">
          <mxGeometry x="607" y="450" width="141" height="25" as="geometry" />
        </mxCell>
        <mxCell id="AKiQm5pq_ZOdEpNl_geh-90" value="" style="endArrow=classic;html=1;rounded=0;" edge="1" parent="1">
          <mxGeometry width="50" height="50" relative="1" as="geometry">
            <mxPoint x="573" y="462.37" as="sourcePoint" />
            <mxPoint x="603" y="462.28999999999996" as="targetPoint" />
          </mxGeometry>
        </mxCell>
        <mxCell id="AKiQm5pq_ZOdEpNl_geh-91" value="결과화면" style="rounded=0;whiteSpace=wrap;html=1;fillColor=#fff2cc;strokeColor=#d6b656;labelBackgroundColor=none;fontColor=default;" vertex="1" parent="1">
          <mxGeometry x="786" y="450" width="132" height="25" as="geometry" />
        </mxCell>
        <mxCell id="AKiQm5pq_ZOdEpNl_geh-92" value="" style="endArrow=classic;html=1;rounded=0;" edge="1" parent="1">
          <mxGeometry width="50" height="50" relative="1" as="geometry">
            <mxPoint x="753" y="462.29" as="sourcePoint" />
            <mxPoint x="783" y="462.21" as="targetPoint" />
          </mxGeometry>
        </mxCell>
        <mxCell id="AKiQm5pq_ZOdEpNl_geh-93" value="" style="endArrow=classic;html=1;rounded=0;" edge="1" parent="1">
          <mxGeometry width="50" height="50" relative="1" as="geometry">
            <mxPoint x="408" y="542.15" as="sourcePoint" />
            <mxPoint x="438" y="542.0699999999999" as="targetPoint" />
          </mxGeometry>
        </mxCell>
        <mxCell id="AKiQm5pq_ZOdEpNl_geh-94" value="회원가입" style="rounded=0;whiteSpace=wrap;html=1;fillColor=#fff2cc;strokeColor=#d6b656;labelBackgroundColor=none;fontColor=default;" vertex="1" parent="1">
          <mxGeometry x="243" y="206.81" width="80" height="25" as="geometry" />
        </mxCell>
        <mxCell id="AKiQm5pq_ZOdEpNl_geh-96" value="" style="endArrow=classic;html=1;rounded=0;" edge="1" parent="1">
          <mxGeometry width="50" height="50" relative="1" as="geometry">
            <mxPoint x="329" y="221.32999999999998" as="sourcePoint" />
            <mxPoint x="359" y="221.25" as="targetPoint" />
          </mxGeometry>
        </mxCell>
        <mxCell id="AKiQm5pq_ZOdEpNl_geh-98" value="프로젝트 세부 설정" style="rounded=0;whiteSpace=wrap;html=1;labelBackgroundColor=none;" vertex="1" parent="1">
          <mxGeometry x="448" y="530" width="120" height="25" as="geometry" />
        </mxCell>
        <mxCell id="AKiQm5pq_ZOdEpNl_geh-100" value="" style="endArrow=classic;html=1;rounded=0;" edge="1" parent="1">
          <mxGeometry width="50" height="50" relative="1" as="geometry">
            <mxPoint x="574" y="542.28" as="sourcePoint" />
            <mxPoint x="604" y="542.1999999999999" as="targetPoint" />
          </mxGeometry>
        </mxCell>
        <mxCell id="AKiQm5pq_ZOdEpNl_geh-101" value="물질 계산" style="rounded=0;whiteSpace=wrap;html=1;fillColor=#fff2cc;strokeColor=#d6b656;labelBackgroundColor=none;fontColor=default;" vertex="1" parent="1">
          <mxGeometry x="611" y="530" width="137" height="25" as="geometry" />
        </mxCell>
        <mxCell id="AKiQm5pq_ZOdEpNl_geh-102" value="결과 검토" style="rhombus;whiteSpace=wrap;html=1;fillColor=#f8cecc;strokeColor=#b85450;" vertex="1" parent="1">
          <mxGeometry x="790" y="523.63" width="100" height="37.75" as="geometry" />
        </mxCell>
        <mxCell id="AKiQm5pq_ZOdEpNl_geh-103" value="" style="endArrow=classic;html=1;rounded=0;" edge="1" parent="1">
          <mxGeometry width="50" height="50" relative="1" as="geometry">
            <mxPoint x="756" y="542.2099999999999" as="sourcePoint" />
            <mxPoint x="786" y="542.1299999999999" as="targetPoint" />
          </mxGeometry>
        </mxCell>
        <mxCell id="AKiQm5pq_ZOdEpNl_geh-104" value="" style="shape=partialRectangle;whiteSpace=wrap;html=1;bottom=1;right=1;left=1;top=0;fillColor=none;routingCenterX=-0.5;direction=west;" vertex="1" parent="1">
          <mxGeometry x="679" y="495.82" width="160" height="23.81" as="geometry" />
        </mxCell>
        <mxCell id="AKiQm5pq_ZOdEpNl_geh-106" value="" style="endArrow=classic;html=1;rounded=0;" edge="1" parent="1">
          <mxGeometry width="50" height="50" relative="1" as="geometry">
            <mxPoint x="898" y="542.15" as="sourcePoint" />
            <mxPoint x="928" y="542.0699999999999" as="targetPoint" />
          </mxGeometry>
        </mxCell>
        <mxCell id="AKiQm5pq_ZOdEpNl_geh-107" value="결과화면" style="rounded=0;whiteSpace=wrap;html=1;fillColor=#fff2cc;strokeColor=#d6b656;labelBackgroundColor=none;fontColor=default;" vertex="1" parent="1">
          <mxGeometry x="947" y="530.01" width="132" height="25" as="geometry" />
        </mxCell>
        <mxCell id="AKiQm5pq_ZOdEpNl_geh-108" value="save/cancel" style="text;strokeColor=none;align=center;fillColor=none;html=1;verticalAlign=middle;whiteSpace=wrap;rounded=0;" vertex="1" parent="1">
          <mxGeometry x="847.9999999999999" y="500.01" width="60" height="30" as="geometry" />
        </mxCell>
        <mxCell id="AKiQm5pq_ZOdEpNl_geh-109" value="프로젝트 생성/조회" style="rounded=0;whiteSpace=wrap;html=1;fillColor=#fff2cc;strokeColor=#d6b656;labelBackgroundColor=none;fontColor=default;" vertex="1" parent="1">
          <mxGeometry x="113" y="487.5" width="120" height="25" as="geometry" />
        </mxCell>
        <mxCell id="AKiQm5pq_ZOdEpNl_geh-110" value="" style="endArrow=classic;html=1;rounded=0;" edge="1" parent="1">
          <mxGeometry width="50" height="50" relative="1" as="geometry">
            <mxPoint x="243" y="499.22" as="sourcePoint" />
            <mxPoint x="280" y="499" as="targetPoint" />
          </mxGeometry>
        </mxCell>
        <mxCell id="AKiQm5pq_ZOdEpNl_geh-111" value="홈" style="rounded=0;whiteSpace=wrap;html=1;fillColor=#fff2cc;strokeColor=#d6b656;labelBackgroundColor=none;fontColor=default;" vertex="1" parent="1">
          <mxGeometry x="51.5" y="620" width="43" height="40" as="geometry" />
        </mxCell>
        <mxCell id="AKiQm5pq_ZOdEpNl_geh-113" value="" style="endArrow=classic;html=1;rounded=0;" edge="1" parent="1">
          <mxGeometry width="50" height="50" relative="1" as="geometry">
            <mxPoint x="101" y="640.01" as="sourcePoint" />
            <mxPoint x="280" y="640" as="targetPoint" />
          </mxGeometry>
        </mxCell>
        <mxCell id="AKiQm5pq_ZOdEpNl_geh-114" value="" style="endArrow=classic;html=1;rounded=0;" edge="1" parent="1">
          <mxGeometry width="50" height="50" relative="1" as="geometry">
            <mxPoint x="73.38" y="670" as="sourcePoint" />
            <mxPoint x="72" y="830" as="targetPoint" />
          </mxGeometry>
        </mxCell>
      </root>
    </mxGraphModel>
  </diagram>
</mxfile>
